# xmcd
#
# Track frame offsets: 
#        150
#        18742
#        35202
#        54754
#        70434
#        89594
#        103434
#        120499
#        139607
#        157065
#        173681
#        190556
#        209234
#        226564
#        243310
#        259416
#        279322
#        298174
#
# Disc length: 4178 seconds
#
# Revision: 0
# Processed by: cddbd v1.5.2PL0 Copyright (c) Steve Scherf et al.
# Submitted via: ExactAudioCopy v0.99pb4
#
DISCID=11105012
DTITLE=Howlin' at the Southern Moon - Delta Moon
DYEAR=2008
DGENRE=Blues Rock
TTITLE0=Clear Blue Flame
TTITLE1=Trouble In The Home
TTITLE2=Jessie Me
TTITLE3=Cool Your Jets
TTITLE4=Life's A Song
TTITLE5=Lap Dog
TTITLE6=I'm A Witness
TTITLE7=You Don't Have To Go
TTITLE8=Must Be Lonely
TTITLE9=Midnight Train 
TTITLE10=Blue Highway
TTITLE11=I Want To Go
TTITLE12=Dreams Come Real 
TTITLE13=Goin' Down South
TTITLE14=Preachin' Blues
TTITLE15=House Of Dolls
TTITLE16=Shake 'Em Down
TTITLE17=Fooling Around
EXTD=
EXTT0=
EXTT1=
EXTT2=
EXTT3=
EXTT4=
EXTT5=
EXTT6=
EXTT7=
EXTT8=
EXTT9=
EXTT10=
EXTT11=
EXTT12=
EXTT13=
EXTT14=
EXTT15=
EXTT16=
EXTT17=
PLAYORDER=
